<?xml version="1.0" encoding="UTF-8"?>
<svg xmlns="http://www.w3.org/2000/svg" version="1.1" viewBox="0 0 22.6 11.3">
  <defs>
    <style>
      .cls-1 {
        fill: #8f9093;
        stroke: #8f9093;
        stroke-miterlimit: 10;
        stroke-width: .4px;
      }
    </style>
  </defs>
  <!-- Generator: Adobe Illustrator 28.7.7, SVG Export Plug-In . SVG Version: 1.2.0 Build 194)  -->
  <g>
    <g id="Layer_1">
      <g id="Layer_2">
        <g id="Layer_1-2">
          <path class="cls-1" d="M.5,5.6C.5,2.8,2.7.5,5.4.5h13.2c1.9,0,3.5,1.6,3.5,3.6s-1.5,3.6-3.5,3.6H5.4c-1.1,0-2-.9-2-2.1s.9-2.1,2-2.1h10.2c.3,0,.6.3.6.6s-.2.6-.6.6H5.4c-.5,0-.9.4-.9.9s.4.9.9.9h13.2c1.3,0,2.4-1.1,2.4-2.5s-1.1-2.5-2.4-2.5H5.4c-2.1,0-3.8,1.8-3.8,4s1.7,4,3.8,4h10.2c.3,0,.6.3.6.6s-.2.6-.6.6H5.4c-2.7,0-4.9-2.3-4.9-5.1Z"/>
        </g>
      </g>
    </g>
  </g>
</svg>