<?xml version="1.0" encoding="UTF-8"?>
<svg id="Layer_2" xmlns="http://www.w3.org/2000/svg" viewBox="0 0 59.13 47.31">
  <defs>
    <style>
      .cls-1 {
        fill: #6b7280;
      }
    </style>
  </defs>
  <g id="Layer_1-2" data-name="Layer_1">
    <path class="cls-1" d="M58.42,7.07c-1.88-3.25-6.86-3.98-14.41-2.13C33.68-3.05,18.84-1.15,10.85,9.18c-3.21,4.15-4.94,9.24-4.94,14.48,0,1.01.06,2.03.19,3.03C-.72,33.76-.62,37.95.71,40.24c1.26,2.18,3.88,3.12,7.33,3.12,2.39-.05,4.78-.38,7.09-.99,10.33,7.98,25.17,6.07,33.15-4.26,3.2-4.14,4.93-9.23,4.93-14.47,0-1.01-.06-2.02-.19-3.02,3.08-3.2,5.13-6.25,5.83-8.85.48-1.8.34-3.39-.44-4.72ZM29.57,3.95c9.19,0,17.16,6.36,19.22,15.32-4.2,3.96-9.89,8.01-15.29,11.12-6.79,3.9-12.68,6.32-17.37,7.65-7.95-7.42-8.39-19.88-.97-27.84,3.73-4,8.95-6.27,14.42-6.26ZM4.12,38.27c-.36-.62-.16-1.78.55-3.2.7-1.33,1.55-2.57,2.54-3.71.98,2.83,2.48,5.45,4.43,7.72-4.25.71-6.9.26-7.52-.81ZM29.57,43.37c-3.32,0-6.59-.84-9.5-2.45,5.34-1.89,10.49-4.27,15.38-7.11,5.32-3.05,10.02-6.36,13.81-9.63-.29,10.67-9.02,19.17-19.7,19.19ZM55.05,10.77c-.42,1.55-1.53,3.33-3.11,5.21-.97-2.83-2.48-5.45-4.43-7.72,3.5-.58,6.74-.53,7.51.8.22.39.23.97.03,1.72Z"/>
  </g>
</svg>