<?xml version="1.0" encoding="UTF-8"?>
<svg id="Layer_2" xmlns="http://www.w3.org/2000/svg" viewBox="0 0 45.09 45.09">
  <defs>
    <style>
      .cls-1 {
        fill: #f4d760;
      }

      .cls-2 {
        fill: #f3d549;
      }

      .cls-3 {
        fill: #16181d;
        opacity: 0;
      }

      .cls-4 {
        fill: #6f8096;
      }

      .cls-5 {
        fill: #f9d953;
      }

      .cls-6 {
        fill: #409dc5;
      }
    </style>
  </defs>
  <g id="Layer_1-2" data-name="Layer_1">
    <rect class="cls-3" x="0" width="45.09" height="45.09" rx="11.47" ry="11.47"/>
    <g>
      <rect class="cls-6" x="5.9" y="26.64" width="16.88" height="4.75" rx=".48" ry=".48" transform="translate(45.65 37.23) rotate(130.97)"/>
      <rect class="cls-4" x="19.94" y="18.33" width="3.24" height="4.75" rx=".3" ry=".3" transform="translate(51.32 18.01) rotate(130.97)"/>
      <g>
        <path class="cls-1" d="M30.82,14.39l-2.5,2.06c-.15.12-.37-.02-.33-.21l.81-3.14-2.73-1.74c-.17-.11-.1-.36.1-.37l3.24-.2.81-3.14c.05-.19.31-.21.39-.02l1.19,3.02,3.24-.2c.2-.01.29.23.14.36l-2.5,2.06,1.19,3.02c.07.18-.13.35-.3.25l-2.73-1.74Z"/>
        <path class="cls-2" d="M20.35,9.99l-2.09.13c-.11,0-.17-.14-.08-.21l1.62-1.33-.77-1.95c-.04-.11.08-.21.17-.14l1.77,1.13,1.62-1.33c.09-.07.22.01.19.12l-.53,2.03,1.77,1.13c.1.06.06.21-.06.22l-2.09.13-.53,2.03c-.03.11-.18.12-.23.01l-.77-1.95Z"/>
        <path class="cls-5" d="M35.77,22.33l-1.19.07c-.22.01-.33-.27-.16-.41l.92-.76c.33-.27.45-.73.29-1.14l-.44-1.11c-.08-.21.15-.4.34-.28l1,.64c.36.23.84.2,1.17-.07l.92-.76c.17-.14.43.02.37.24l-.3,1.15c-.11.42.07.86.43,1.09l1,.64c.19.12.11.41-.11.42l-1.19.07c-.43.03-.8.33-.91.75l-.3,1.15c-.06.22-.36.23-.44.03l-.44-1.11c-.16-.4-.56-.66-.99-.63Z"/>
      </g>
    </g>
  </g>
</svg>