<?xml version="1.0" encoding="UTF-8"?>
<svg id="Layer_2" data-name="Layer 2" xmlns="http://www.w3.org/2000/svg" viewBox="0 0 14.14 14.14">
  <defs>
    <style>
      .cls-1 {
        fill: #9f9f9f;
      }
    </style>
  </defs>
  <g id="Layer_1-2" data-name="Layer 1">
    <path class="cls-1" d="M14.14,5.3c0,.33-.26.59-.59.59s-.59-.26-.59-.59v-3.29l-4.88,4.89c-.23.23-.6.23-.83,0-.23-.23-.23-.6,0-.83L12.13,1.18h-3.29c-.33,0-.59-.26-.59-.59s.26-.59.59-.59h4.71c.33,0,.59.26.59.59v4.71ZM11.19,7.07c-.33,0-.59.26-.59.59v5.3H1.18V3.53h5.3c.33,0,.59-.26.59-.59s-.26-.59-.59-.59H1.18c-.65,0-1.18.53-1.18,1.18v9.43c0,.65.53,1.18,1.18,1.18h9.43c.65,0,1.18-.53,1.18-1.18v-5.3c0-.33-.26-.59-.59-.59Z"/>
  </g>
</svg>