<?xml version="1.0" encoding="UTF-8"?>
<svg xmlns="http://www.w3.org/2000/svg" xmlns:xlink="http://www.w3.org/1999/xlink" version="1.1" viewBox="0 0 207.1 184.5">
  <defs>
    <style>
      .cls-1 {
        filter: url(#drop-shadow-3);
      }

      .cls-2 {
        filter: url(#drop-shadow-5);
      }

      .cls-3 {
        filter: url(#drop-shadow-4);
      }

      .cls-4 {
        fill: #f2f4f7;
      }

      .cls-5 {
        filter: url(#drop-shadow-1);
      }

      .cls-5, .cls-6, .cls-7, .cls-8 {
        stroke-miterlimit: 10;
      }

      .cls-5, .cls-8 {
        fill: #edf8ff;
        stroke: #00acd6;
      }

      .cls-9 {
        fill: #aba9ae;
      }

      .cls-10 {
        fill: #b0ebff;
      }

      .cls-6, .cls-7 {
        fill: #ffffed;
        stroke: #fbea00;
      }

      .cls-11 {
        stroke: #808ba0;
        stroke-miterlimit: 10;
        stroke-width: 2px;
      }

      .cls-11, .cls-12 {
        fill: #f8fff8;
      }

      .cls-13 {
        fill: #808ba0;
      }

      .cls-12 {
        stroke: #aba9ae;
        stroke-miterlimit: 10;
        stroke-width: 2.1px;
      }

      .cls-7 {
        filter: url(#drop-shadow-2);
      }
    </style>
    <filter id="drop-shadow-1" x="6.41" y="0" width="200.68" height="81.38">
      <feOffset dx="0" dy="4.41"/>
      <feGaussianBlur result="blur" stdDeviation="3.15"/>
      <feFlood flood-color="#d0d0d0" flood-opacity=".3"/>
      <feComposite in2="blur" operator="in"/>
      <feComposite in="SourceGraphic"/>
    </filter>
    <filter id="drop-shadow-2" x="0" y="41.26" width="207.09" height="120.82">
      <feOffset dx="0" dy="4.41"/>
      <feGaussianBlur result="blur-2" stdDeviation="3.15"/>
      <feFlood flood-color="#d0d0d0" flood-opacity=".3"/>
      <feComposite in2="blur-2" operator="in"/>
      <feComposite in="SourceGraphic"/>
    </filter>
    <filter id="drop-shadow-3" x="12.42" y="102.07" width="29.04" height="13.77">
      <feOffset dx="0" dy=".8"/>
      <feGaussianBlur result="blur-3" stdDeviation=".57"/>
      <feFlood flood-color="#d0d0d0" flood-opacity=".3"/>
      <feComposite in2="blur-3" operator="in"/>
      <feComposite in="SourceGraphic"/>
    </filter>
    <filter id="drop-shadow-4" x="19.35" y="158.28" width="13.45" height="13.86">
      <feOffset dx="0" dy="4.41"/>
      <feGaussianBlur result="blur-4" stdDeviation="3.15"/>
      <feFlood flood-color="#d0d0d0" flood-opacity=".3"/>
      <feComposite in2="blur-4" operator="in"/>
      <feComposite in="SourceGraphic"/>
    </filter>
    <filter id="drop-shadow-5" x="16.4" y="90.62" width="125.82" height="40.09">
      <feOffset dx="0" dy="1.7"/>
      <feGaussianBlur result="blur-5" stdDeviation="1.22"/>
      <feFlood flood-color="#d0d0d0" flood-opacity=".3"/>
      <feComposite in2="blur-5" operator="in"/>
      <feComposite in="SourceGraphic"/>
    </filter>
  </defs>
  <!-- Generator: Adobe Illustrator 28.7.7, SVG Export Plug-In . SVG Version: 1.2.0 Build 194)  -->
  <g>
    <g id="Layer_1">
      <path class="cls-8" d="M206.5,40.8L31,88.5c-7,1.9-14.4-2.8-16.5-10.7h0c-2.2-7.8,1.8-15.7,8.7-17.6L206.8,10.4"/>
      <path class="cls-6" d="M206.7,122.8l-171.9,46.4c-4.6,1.3-9.4-1.4-10.7-6.1l-13.4-48.5c-1.3-4.6,1.4-9.4,6.1-10.7l189.9-51.5"/>
      <rect class="cls-10" x="22.6" y="113.5" width="28.7" height="6.8" rx="1" ry="1" transform="translate(-29.7 14) rotate(-15.4)"/>
      <path class="cls-6" d="M29.7,169.1l12.3,10.5c.1,0,.3,0,.3-.2l-.8-13.1"/>
      <rect class="cls-4" x="39.8" y="165.4" width="3.2" height="1.6" transform="translate(-42.6 16.9) rotate(-15.4)"/>
      <rect class="cls-10" x="24.5" y="115.9" width="129.5" height="6.8" rx="2" ry="2" transform="translate(-28.5 28) rotate(-15.4)"/>
      <rect class="cls-10" x="29.2" y="132.4" width="129.6" height="6.9" rx="2" ry="2" transform="translate(-32.7 29.8) rotate(-15.4)"/>
      <polygon class="cls-4" points="31.6 169.9 29.1 167.8 30.1 166.7 32.6 168.8 31.6 169.9"/>
      <ellipse class="cls-11" cx="112.7" cy="70.1" rx="23.3" ry="22.9" transform="translate(-13.2 28.2) rotate(-13.5)"/>
      <path class="cls-13" d="M86.2,114.7h0l13.7-21.1c.2-.3.4-.8.3-1l-3.3-2.2c-.5-.3-.9-.2-1.3.3l-14.4,20.6"/>
      <path class="cls-5" d="M449.1-56L266.2-6.3c-7,1.9-14.4-2.8-16.5-10.7h0c-2.1-7.8,1.8-15.7,8.7-17.6l190.7-51.7"/>
      <path class="cls-7" d="M448.9,25.3l-181.9,49.2c-4.6,1.3-9.4-1.4-10.7-6.1l-13.4-48.6c-1.3-4.6,1.4-9.4,6.1-10.7l200.1-54.2"/>
      <image class="cls-1" width="30" height="14" transform="translate(254 15.1)" xlink:href="q&amp;atest-1.png"/>
      <image class="cls-3" width="127" height="41" transform="translate(258 3.1)" xlink:href="q&amp;atest-2.png"/>
      <image class="cls-2" width="127" height="41" transform="translate(263 20.1)" xlink:href="q&amp;atest-3.png"/>
      <g>
        <ellipse class="cls-12" cx="293.1" cy="-13.9" rx="18.3" ry="18" transform="translate(14.8 79.1) rotate(-15.8)"/>
        <path class="cls-9" d="M269.5,20.1l2.7,1.8.4.2,10.9-17.6q.2-.4.2-.8l-2.7-1.8c-.4-.2-.8-.2-1,.3l-10.4,17.9c-.9-.5,0,0,0,0Z"/>
      </g>
    </g>
  </g>
</svg>